# Blender 4.4.0
# www.blender.org
o Cube.001
v -0.022422 -0.001620 -0.008094
v -0.022422 0.887850 -0.164932
v -0.022422 0.001043 0.007011
v -0.022422 0.890513 -0.149827
v 0.022422 -0.001620 -0.008094
v 0.022422 0.887850 -0.164932
v 0.022422 0.001043 0.007011
v 0.022422 0.890513 -0.149827
v -0.022422 0.447305 -0.087252
v -0.022422 0.449968 -0.072147
v 0.022422 0.449968 -0.072147
v 0.022422 0.447305 -0.087252
v -0.022422 0.541276 -0.103822
v -0.022422 0.543940 -0.088717
v 0.022422 0.543940 -0.088717
v 0.022422 0.541276 -0.103822
v 0.067156 0.541276 -0.103822
v 0.047156 0.447305 -0.087252
v -0.047156 0.447305 -0.087252
v -0.067156 0.541276 -0.103822
v -0.061399 0.541089 -0.081055
v -0.044250 0.455267 -0.065922
v 0.061399 0.541089 -0.081055
v 0.044250 0.455267 -0.065922
v -0.020918 0.891259 -0.165011
v -0.012294 0.901261 -0.163779
v -0.019378 0.894283 -0.165009
v -0.017565 0.897036 -0.164865
v -0.015657 0.899249 -0.164592
v -0.013841 0.900705 -0.164218
v -0.020918 0.893744 -0.150919
v -0.012294 0.902722 -0.155497
v -0.019378 0.896585 -0.151955
v -0.017565 0.899123 -0.153032
v -0.015657 0.901109 -0.154045
v -0.013841 0.902349 -0.154894
v 0.012294 0.902722 -0.155497
v 0.020918 0.893744 -0.150919
v 0.013841 0.902349 -0.154894
v 0.015657 0.901109 -0.154045
v 0.017565 0.899123 -0.153032
v 0.019378 0.896585 -0.151955
v 0.012294 0.901261 -0.163779
v 0.020918 0.891259 -0.165011
v 0.013841 0.900705 -0.164218
v 0.015657 0.899249 -0.164592
v 0.017565 0.897036 -0.164865
v 0.019378 0.894283 -0.165009
v -0.067156 0.545164 -0.081773
v -0.047156 0.451192 -0.065204
v 0.067156 0.545164 -0.081773
v 0.047156 0.451192 -0.065204
v -0.061399 0.540308 -0.085486
v -0.044250 0.454486 -0.070354
v 0.061399 0.540308 -0.085486
v 0.044250 0.454486 -0.070354
vn -1.0000 -0.0000 -0.0000
vn -0.0000 0.1736 0.9848
vn 1.0000 -0.0000 -0.0000
vn -0.0000 -0.9848 0.1736
vn -0.0000 -0.0231 -0.9997
vn 0.9132 0.4012 -0.0707
vn -0.0000 0.9848 -0.1736
vn -0.0000 -0.1736 -0.9848
vn -0.9787 -0.2020 0.0356
vn 0.9787 -0.2020 0.0356
vn -0.0000 0.3202 0.9473
vn -0.0000 0.8507 0.5256
vn -0.0000 0.5652 0.8250
vn -0.0000 0.4543 0.8908
vn -0.0000 0.3907 0.9205
vn -0.0000 0.3425 0.9395
vn -0.2916 0.9420 -0.1661
vn -0.6018 0.7865 -0.1387
vn -0.7451 0.6568 -0.1158
vn -0.8289 0.5509 -0.0971
vn -0.8882 0.4524 -0.0798
vn 0.2916 0.9420 -0.1661
vn 0.6018 0.7865 -0.1387
vn 0.7451 0.6568 -0.1158
vn 0.8289 0.5509 -0.0971
vn 0.8882 0.4524 -0.0798
vn -0.0000 0.6196 -0.7849
vn -0.0000 0.2489 -0.9685
vn -0.0000 0.1222 -0.9925
vn -0.0000 0.0523 -0.9986
vn -0.0000 0.0006 -1.0000
vn -0.9132 0.4012 -0.0707
vn -0.9812 0.1901 -0.0335
vn 0.9812 0.1901 -0.0335
vt 0.366256 0.460533
vt 0.366256 0.581670
vt 0.677150 0.581670
vt 0.677150 0.460533
vt 0.677150 0.270776
vt 0.366256 0.270776
vt 0.666722 0.281204
vt 0.376683 0.281204
vt 0.666722 0.571242
vt 0.677150 0.427687
vt 0.366256 0.427687
vt 0.848459 0.429112
vt 0.194947 0.429112
vt 0.056126 0.724574
vt 0.056126 0.270776
vt 0.987279 0.270776
vt 0.987279 0.724574
vt 0.056126 0.460533
vt 0.194781 0.427687
vt 0.848625 0.427687
vt 0.987279 0.460533
vt 0.194781 0.724574
vt 0.194781 0.270776
vt 0.848625 0.724574
vt 0.848625 0.270776
vt 0.436474 0.340994
vt 0.606931 0.340994
vt 0.606931 0.511452
vt 0.436474 0.511452
vt 0.376684 0.571242
vt 0.617657 0.522177
vt 0.425749 0.522177
vt 0.630249 0.534770
vt 0.413156 0.534770
vt 0.643477 0.547997
vt 0.399929 0.547997
vt 0.656044 0.560565
vt 0.387361 0.560565
vt 0.425749 0.330269
vt 0.413156 0.317676
vt 0.399929 0.304449
vt 0.387361 0.291881
vt 0.617657 0.330269
vt 0.630249 0.317676
vt 0.643477 0.304449
vt 0.656044 0.291881
vt 0.068318 0.459109
vt 0.975087 0.459109
s 0
f 13/1/1 14/4/1 4/3/1 2/2/1
f 14/1/2 15/4/2 8/3/2 4/2/2
f 15/4/3 16/1/3 6/2/3 8/3/3
f 3/2/4 1/6/4 5/5/4 7/3/4
f 2/6/5 25/8/5 44/7/5 6/5/5
f 6/5/6 44/7/6 38/9/6 8/3/6
f 7/5/3 5/6/3 12/11/3 11/10/3
f 3/6/2 7/5/2 11/10/2 10/11/2
f 1/6/1 3/5/1 10/10/1 9/11/1
f 24/12/7 56/12/7 54/13/7 22/13/7
f 49/14/7 51/17/7 17/16/7 16/5/7 15/3/7 14/2/7 13/6/7 20/15/7
f 16/4/8 17/21/8 18/20/8 12/10/8 5/5/8 1/6/8 9/11/8 19/19/8 20/18/8 13/1/8 2/2/8 6/3/8
f 20/15/9 19/23/9 50/22/9 49/14/9
f 11/3/4 12/5/4 18/25/4 52/24/4 50/22/4 19/23/4 9/6/4 10/2/4
f 52/24/10 18/25/10 17/16/10 51/17/10
f 26/26/7 32/29/7 37/28/7 43/27/7
f 8/3/11 38/9/11 31/30/11 4/2/11
f 32/29/12 36/32/12 39/31/12 37/28/12
f 36/32/13 35/34/13 40/33/13 39/31/13
f 35/34/14 34/36/14 41/35/14 40/33/14
f 34/36/15 33/38/15 42/37/15 41/35/15
f 33/38/16 31/30/16 38/9/16 42/37/16
f 26/26/17 30/39/17 36/32/17 32/29/17
f 30/39/18 29/40/18 35/34/18 36/32/18
f 29/40/19 28/41/19 34/36/19 35/34/19
f 28/41/20 27/42/20 33/38/20 34/36/20
f 27/42/21 25/8/21 31/30/21 33/38/21
f 37/28/22 39/31/22 45/43/22 43/27/22
f 39/31/23 40/33/23 46/44/23 45/43/23
f 40/33/24 41/35/24 47/45/24 46/44/24
f 41/35/25 42/37/25 48/46/25 47/45/25
f 42/37/26 38/9/26 44/7/26 48/46/26
f 43/27/27 45/43/27 30/39/27 26/26/27
f 45/43/28 46/44/28 29/40/28 30/39/28
f 46/44/29 47/45/29 28/41/29 29/40/29
f 47/45/30 48/46/30 27/42/30 28/41/30
f 48/46/31 44/7/31 25/8/31 27/42/31
f 4/2/32 31/30/32 25/8/32 2/6/32
f 21/47/2 49/18/2 50/19/2 22/13/2
f 24/12/2 52/20/2 51/21/2 23/48/2
f 23/48/2 51/21/2 49/18/2 21/47/2
f 22/13/2 50/19/2 52/20/2 24/12/2
f 54/13/2 56/12/2 55/48/2 53/47/2
f 23/48/33 55/48/33 56/12/33 24/12/33
f 21/47/4 53/47/4 55/48/4 23/48/4
f 22/13/34 54/13/34 53/47/34 21/47/34
